HIERARCHY
ROOT Hips
{
	OFFSET 0.000000 0.000000 0.000000
	CHANNELS 6 Xposition Yposition Zposition Zrotation Yrotation Xrotation 
	JOINT LHipJoint
	{
		OFFSET 0.000000 0.000000 0.000000
		CHANNELS 3 Zrotation Yrotation Xrotation
		JOINT LeftUpLeg
		{
			OFFSET 1.363060 -1.794630 0.839290
			CHANNELS 3 Zrotation Yrotation Xrotation
			JOINT LeftLeg
			{
				OFFSET 2.448110 -6.726130 0.000000
				CHANNELS 3 Zrotation Yrotation Xrotation
				JOINT LeftFoot
				{
					OFFSET 2.562200 -7.039590 0.000000
					CHANNELS 3 Zrotation Yrotation Xrotation
					JOINT LeftToeBase
					{
						OFFSET 0.157640 -0.433110 2.322550
						CHANNELS 3 Zrotation Yrotation Xrotation
						End Site
						{
							OFFSET 0.000000 0.000000 0.000000
						}
					}
				}
			}
		}
	}
	JOINT RHipJoint
	{
		OFFSET 0.000000 0.000000 0.000000
		CHANNELS 3 Zrotation Yrotation Xrotation
		JOINT RightUpLeg
		{
			OFFSET -1.305520 -1.794630 0.839290
			CHANNELS 3 Zrotation Yrotation Xrotation
			JOINT RightLeg
			{
				OFFSET -2.542530 -6.985550 0.000000
				CHANNELS 3 Zrotation Yrotation Xrotation
				JOINT RightFoot
				{
					OFFSET -2.568260 -7.056230 0.000000
					CHANNELS 3 Zrotation Yrotation Xrotation
					JOINT RightToeBase
					{
						OFFSET -0.164730 -0.452590 2.363150
						CHANNELS 3 Zrotation Yrotation Xrotation
						End Site
						{
							OFFSET 0.000000 0.000000 0.000000
						}
					}
				}
			}
		}
	}
	JOINT LowerBack
	{
		OFFSET 0.000000 0.000000 0.000000
		CHANNELS 3 Zrotation Yrotation Xrotation
		JOINT Spine
		{
			OFFSET 0.028270 2.035590 -0.193380
			CHANNELS 3 Zrotation Yrotation Xrotation
			JOINT Spine1
			{
				OFFSET 0.056720 2.048850 -0.042750
				CHANNELS 3 Zrotation Yrotation Xrotation
				JOINT Neck
				{
					OFFSET 0.000000 0.000000 0.000000
					CHANNELS 3 Zrotation Yrotation Xrotation
					JOINT Neck1
					{
						OFFSET -0.054170 1.746240 0.172020
						CHANNELS 3 Zrotation Yrotation Xrotation
						JOINT Head
						{
							OFFSET 0.104070 1.761360 -0.123970
							CHANNELS 3 Zrotation Yrotation Xrotation
							End Site
							{
								OFFSET 0.000000 0.000000 0.000000
							}
						}
					}
				}
				JOINT LeftShoulder
				{
					OFFSET 0.000000 0.000000 0.000000
					CHANNELS 3 Zrotation Yrotation Xrotation
					JOINT LeftArm
					{
						OFFSET 3.362410 1.200890 -0.311210
						CHANNELS 3 Zrotation Yrotation Xrotation
						JOINT LeftForeArm
						{
							OFFSET 4.983000 -0.000000 -0.000000
							CHANNELS 3 Zrotation Yrotation Xrotation
							JOINT LeftHand
							{
								OFFSET 3.483560 -0.000000 -0.000000
								CHANNELS 3 Zrotation Yrotation Xrotation
								JOINT LeftFingerBase
								{
									OFFSET 0.000000 0.000000 0.000000
									CHANNELS 3 Zrotation Yrotation Xrotation
									JOINT LeftHandIndex1
									{
										OFFSET 0.715260 -0.000000 -0.000000
										CHANNELS 3 Zrotation Yrotation Xrotation
										End Site
										{
											OFFSET 0.000000 0.000000 0.000000
										}
									}
								}
								JOINT LThumb
								{
									OFFSET 0.000000 0.000000 0.000000
									CHANNELS 3 Zrotation Yrotation Xrotation
									End Site
									{
										OFFSET 0.000000 0.000000 0.000000
									}
								}
							}
						}
					}
				}
				JOINT RightShoulder
				{
					OFFSET 0.000000 0.000000 0.000000
					CHANNELS 3 Zrotation Yrotation Xrotation
					JOINT RightArm
					{
						OFFSET -3.136600 1.374050 -0.404650
						CHANNELS 3 Zrotation Yrotation Xrotation
						JOINT RightForeArm
						{
							OFFSET -5.241900 -0.000000 -0.000000
							CHANNELS 3 Zrotation Yrotation Xrotation
							JOINT RightHand
							{
								OFFSET -3.444170 -0.000000 -0.000000
								CHANNELS 3 Zrotation Yrotation Xrotation
								JOINT RightFingerBase
								{
									OFFSET 0.000000 0.000000 0.000000
									CHANNELS 3 Zrotation Yrotation Xrotation
									JOINT RightHandIndex1
									{
										OFFSET -0.622530 -0.000000 -0.000000
										CHANNELS 3 Zrotation Yrotation Xrotation
										End Site
										{
											OFFSET 0.000000 0.000000 0.000000
										}
									}
								}
								JOINT RThumb
								{
									OFFSET 0.000000 0.000000 0.000000
									CHANNELS 3 Zrotation Yrotation Xrotation
									End Site
									{
										OFFSET 0.000000 0.000000 0.000000
									}
								}
							}
						}
					}
				}
			}
		}
	}
}
MOTION
Frames: 4
Frame Time: 0.033333
-1.739322 15.288141 24.292153 4.326245 8.692445 22.557553 -12.102094 47.325432 -4.455255 -44.523629 -46.910396 -40.578361 8.585203 -1.478679 53.976115 -2.492130 -2.608050 -4.573109 0.000000 0.000000 0.000000 10.498946 -35.592804 14.869408 0.760942 19.703928 -38.952956 0.374489 -15.775006 55.801582 30.640958 -21.939898 -14.045403 0.000000 0.000000 0.000000 4.579919 -4.264233 33.410367 5.745505 -1.780228 4.184949 -2.804821 1.732287 1.594966 0.475579 -2.371105 -11.167744 -8.963216 -0.856123 -0.684884 0.000000 0.000000 0.000000 12.813064 5.195672 17.444881 -73.736370 18.272027 34.689717 131.726667 -76.519757 178.173072 -9.700598 -39.133736 -0.984203 -9.529179 -39.098132 -0.000000 0.000000 0.000000 0.000000 0.000000 0.000000 0.000000 -16.302827 -18.372027 -6.408338 63.135032 12.985197 18.305593 -178.220662 66.180491 172.284446 -24.974772 13.811418 -4.096513 -26.466962 13.117969 0.000000 0.000000 0.000000 0.000000 0.000000 0.000000 0.000000 
-1.763760 15.301965 24.474495 4.202047 8.708508 22.474994 -12.253340 46.848380 -4.848736 -43.649448 -47.005017 -40.867863 9.101752 -1.643195 55.451601 -2.788352 -2.642143 -6.000867 0.000000 0.000000 0.000000 10.980565 -35.065033 15.067167 -0.160188 19.278853 -38.933003 1.200414 -16.083087 55.476755 32.589712 -24.578907 -12.946733 0.000000 0.000000 0.000000 4.119095 -4.255511 33.435325 5.572010 -1.971542 3.926403 -2.413324 1.466871 1.808206 0.839194 -2.197739 -10.647854 -8.516031 -0.782481 -1.210757 0.000000 0.000000 0.000000 13.033083 5.420712 16.371695 -74.791876 17.471987 34.157935 128.073086 -78.077315 178.695170 -10.066984 -37.286886 -0.699191 -10.052034 -37.222378 -0.000000 0.000000 0.000000 0.000000 0.000000 0.000000 0.000000 -16.541058 -17.806912 -6.013941 63.302469 12.198627 19.924482 -176.408903 66.128609 172.418833 -24.916202 15.149379 -4.038768 -26.475492 14.413982 0.000000 0.000000 0.000000 0.000000 0.000000 0.000000 0.000000 
-1.788917 15.315419 24.654670 4.053596 8.713472 22.386556 -12.240324 46.505404 -5.200232 -42.900643 -47.160922 -41.077504 9.429012 -1.710768 56.982327 -3.211596 -2.415967 -7.149726 0.000000 0.000000 0.000000 11.358376 -34.678497 15.295212 -1.001841 18.942783 -38.946507 2.161500 -16.314974 55.193933 34.764175 -27.485430 -11.980997 0.000000 0.000000 0.000000 3.616143 -4.262372 33.515844 5.469178 -2.171432 3.745331 -2.104164 1.212749 1.940960 1.221378 -2.034248 -10.218907 -7.983092 -0.701581 -1.664677 0.000000 0.000000 0.000000 13.092037 5.751123 15.378178 -75.952146 16.540853 32.056996 125.427401 -80.391671 178.999355 -9.118486 -35.643230 -0.536979 -9.133557 -35.589142 -0.000000 0.000000 0.000000 0.000000 0.000000 0.000000 0.000000 -16.724019 -17.286127 -5.617133 63.612354 11.268637 21.713375 -174.737032 66.153777 172.827898 -25.125502 16.939351 -3.846910 -26.731246 16.129401 0.000000 0.000000 0.000000 0.000000 0.000000 0.000000 0.000000 
-1.816601 15.328730 24.829606 3.879977 8.663190 22.305733 -12.040882 46.250643 -5.548921 -42.254688 -47.260667 -41.195606 9.541058 -1.633561 58.439725 -3.711445 -2.022483 -8.146773 0.000000 0.000000 0.000000 11.675488 -34.386185 15.528799 -1.756123 18.658641 -38.993460 3.140934 -16.452234 54.939991 36.960205 -30.495657 -11.125002 0.000000 0.000000 0.000000 2.976167 -4.265833 33.688295 5.493186 -2.352295 3.531053 -1.907078 1.011769 2.090819 1.546359 -1.859982 -9.842127 -7.356016 -0.608195 -2.071583 0.000000 0.000000 0.000000 13.004805 6.052729 14.464687 -77.037143 15.542824 29.295734 125.405009 -82.297257 178.857347 -6.967700 -34.385383 -0.622758 -6.830317 -34.378007 -0.000000 0.000000 0.000000 0.000000 0.000000 0.000000 0.000000 -16.818289 -16.828104 -5.247089 64.031385 10.209815 23.587740 -173.302271 66.159489 173.599115 -25.764336 19.044981 -3.478856 -27.378889 18.122509 0.000000 0.000000 0.000000 0.000000 0.000000 0.000000 0.000000 
